<svg xmlns="http://www.w3.org/2000/svg" width="64" height="64" fill="#fff" viewBox="0 0 511.999 511.999">
  <path d="m309.164 262.221-40.521-7.512c-5.015-.924-9.831 2.383-10.762 7.395a9.235 9.235 0 0 0 7.395 10.762l40.521 7.512c.57.106 1.135.156 1.694.156 4.363 0 8.244-3.107 9.068-7.551.929-5.015-2.382-9.833-7.395-10.762zm130.634-.116a9.228 9.228 0 0 0-10.761-7.395l-40.521 7.512c-5.014.929-8.324 5.748-7.395 10.762.824 4.445 4.704 7.551 9.068 7.551.558 0 1.125-.052 1.693-.156l40.521-7.512a9.233 9.233 0 0 0 7.395-10.762z"/>
  <circle cx="286.413" cy="293.603" r="13.758"/>
  <circle cx="411.265" cy="293.603" r="13.758"/>
  <path d="M302.142 322.898c0 25.79 20.908 46.698 46.698 46.698s46.698-20.908 46.698-46.698h-93.396zm26.42-18.642c0 5.845 9.079 10.582 20.279 10.582s20.279-4.738 20.279-10.582c-.001-5.845-40.558-5.845-40.558 0z"/>
  <path d="M486.072 271.361c24.855-24.476 30.11-65.216 23.036-98.136a9.228 9.228 0 0 0-5.477-6.585c-.623-.258-10.565-4.344-24.932-7.123-7.527-1.455-16.267-2.552-25.518-2.552-3.23 0-6.388.133-9.47.396-13.357 1.145-25.308 4.763-35.677 10.806-1.541.899-17.185-6.741-19.823-7.518a139.454 139.454 0 0 0-19.758-4.289 139.76 139.76 0 0 0-49.931 1.954c-.058.012-.116.027-.174.041-2.62.587-5.226 1.234-7.811 1.973-1.397.4-17.103-14.923-19.633-16.752a162.127 162.127 0 0 0-23.642-14.186c-16.333-8.005-33.988-13.264-52.025-15.596-36.327-4.695-73.948 2.661-105.482 21.413-15.542 9.243-29.524 21.109-41.213 34.902-12.161-32.464-8.455-69.223 10.662-98.96 4.445-6.915 5.932-15.148 4.186-23.179-1.746-8.033-6.517-14.905-13.432-19.351a30.675 30.675 0 0 0-16.623-4.892c-10.531 0-20.216 5.285-25.907 14.136C8.696 67.002-.771 100.705.048 135.333c.82 34.627 11.87 67.844 31.957 96.063l2.777 3.901c-7.727 30.079-5.168 62.23-5.168 93.074v117.062c0 23.621 19.216 42.838 42.838 42.838 23.621 0 42.838-19.216 42.838-42.838v-47.849h75.605v47.849c0 23.621 19.216 42.838 42.838 42.838 23.621 0 42.838-19.216 42.838-42.838v-47.849h36.399v47.849c0 23.621 19.216 42.838 42.838 42.838 23.621 0 42.838-19.216 42.838-42.838v-48.824c.025.176 24.608-6.697 27.018-7.645 14.431-5.675 27.425-16.273 37.197-28.166 10.072-12.259 17.237-26.8 21.163-42.154a115.003 115.003 0 0 0 3.481-23.872c.126-3.158-2.827-22.038-1.433-23.411zM42.164 213.35c-14.828-23.542-22.992-50.476-23.654-78.454-.731-30.924 7.722-61.024 24.45-87.044a12.279 12.279 0 0 1 10.374-5.657c2.35 0 4.645.677 6.638 1.959a12.23 12.23 0 0 1 5.373 7.741 12.235 12.235 0 0 1-1.674 9.271C39.244 99.163 36.412 147 55.853 187.32a164.096 164.096 0 0 0-13.689 26.03zm215.942 175.002v57.082c0 13.439-10.933 24.372-24.372 24.372s-24.372-10.933-24.372-24.372v-57.082c0-5.1-4.134-9.233-9.233-9.233h-94.07a9.233 9.233 0 0 0-9.233 9.233v57.082c0 13.439-10.933 24.372-24.372 24.372s-24.372-10.933-24.372-24.372V276.329c0-1.534.032-3.065.08-4.594.014-.442.033-.884.05-1.325.047-1.163.107-2.325.181-3.485.026-.414.049-.828.079-1.241.107-1.485.234-2.967.387-4.445.038-.364.085-.726.126-1.089a150.694 150.694 0 0 1 .654-5.092c.138-.94.288-1.88.444-2.817.116-.692.229-1.384.353-2.072.207-1.145.428-2.286.664-3.426.174-.841.359-1.677.548-2.511.113-.506.23-1.011.35-1.515 9.298-39.295 34.524-72.496 68.459-92.389.478-.278.952-.56 1.433-.833.504-.287 1.011-.568 1.518-.849.811-.449 1.625-.894 2.445-1.327.283-.15.565-.3.848-.448a145.895 145.895 0 0 1 53.751-15.855l.577-.052c1.167-.105 2.337-.192 3.507-.268.336-.022.671-.044 1.007-.064 1.071-.063 2.143-.11 3.218-.148.362-.012.721-.031 1.083-.042 1.395-.041 2.793-.064 4.193-.064 13.911 0 27.649 2.013 40.809 5.861a146.669 146.669 0 0 1 56.358 31.227c-.517.235-1.039.462-1.554.704-10.369-6.043-22.32-9.662-35.677-10.806-3.083-.265-6.24-.396-9.47-.396-26.917 0-49.503 9.281-50.452 9.676a9.233 9.233 0 0 0-5.477 6.584c-.564 2.628-12.947 62.7 23.035 98.137 1.575 1.55-1.934 23.002-1.743 27.013.457 9.603 2.302 19.134 5.37 28.244 7.683 22.814 23.721 43.333 44.333 55.899.142.086.287.166.428.252a9.165 9.165 0 0 0-1.891 5.579zm122.077 57.082h-.001c0 13.439-10.933 24.372-24.372 24.372s-24.372-10.933-24.372-24.372v-47.849h48.745v47.849zm89.907-184.461a9.232 9.232 0 0 0-3.066 8.876 120.717 120.717 0 0 1 2.084 15.047c.229 3.041.343 6.094.343 9.147 0 1.444-.038 2.879-.11 4.306-.018.369-.058.734-.081 1.102a84.928 84.928 0 0 1-.242 3.172c-.036.358-.09.71-.13 1.067a86.818 86.818 0 0 1-.404 3.17c-.044.295-.103.586-.151.88a88.646 88.646 0 0 1-.593 3.315c-.043.211-.095.417-.139.627a84.304 84.304 0 0 1-.816 3.526c-.028.11-.06.217-.089.326a85.075 85.075 0 0 1-1.075 3.777l-.001.004c-9.953 31.929-38.251 55.844-72.502 59.355a88.038 88.038 0 0 1-3.192.246 85.655 85.655 0 0 1-5.548.201h-71.073c-46.91 0-85.075-38.165-85.075-85.075 0-8.141.816-16.282 2.428-24.194a9.24 9.24 0 0 0-3.066-8.876c-26.774-22.766-23.71-64.722-21.759-78.982 6.799-2.265 20.279-6.049 35.584-6.513a101.56 101.56 0 0 1 3.084-.047c5.841 0 11.355.517 16.52 1.545 8.61 1.714 16.253 4.847 22.842 9.374a9.223 9.223 0 0 0 9.485.585 120.679 120.679 0 0 1 17.061-7.259c.111-.032.224-.048.335-.085a120.16 120.16 0 0 1 28.273-5.759l.332-.025c1.347-.106 2.697-.182 4.05-.243.32-.014.64-.031.961-.042a123.81 123.81 0 0 1 4.482-.09c19.569 0 38.239 4.543 55.493 13.502a9.232 9.232 0 0 0 9.484-.586c10.541-7.245 23.786-10.918 39.362-10.918 1.029 0 2.053.016 3.069.047.357.011.708.033 1.064.048.655.027 1.311.049 1.959.089.915.054 1.819.122 2.718.198.082.007.167.011.25.018 12.427 1.071 23.15 4.057 29.158 6.025.148.048.311.1.453.148 1.951 14.288 5 56.216-21.762 78.971z"/>
</svg>
