<svg xmlns="http://www.w3.org/2000/svg" fill="#fff" viewBox="-22.4 -22.4 76.8 76.8">
    <path d="M15.544 28.08c-.002-.006-.008-.01-.012-.015l-2.873-4.489a.75.75 0 0 0-.992-.266l-.256.157c-.344.188-.337.673-.133 1.008l1.841 2.857c-.157-.035-.316-.063-.471-.103a11.803 11.803 0 0 1-7.485-5.988c-1.448-2.797-1.72-5.99-.766-8.992s3.118-5.452 5.915-6.899a.971.971 0 0 0-.892-1.724c-3.258 1.686-5.763 4.54-6.874 8.036s-.794 7.215.892 10.473a13.761 13.761 0 0 0 8.72 6.973c.043.011.087.017.13.028l-2.541 1.288a.672.672 0 0 0-.254.948l.098.256c.205.335.557.454.9.266l4.651-2.381c.006-.004.012-.003.018-.007l.312-.171a.679.679 0 0 0 .256-.953zm13.015-18.055c-1.783-3.447-4.862-5.988-8.618-6.972-.267-.07-.541-.124-.814-.179l2.494-1.265c.344-.189.549-.614.345-.949l-.099-.255a.75.75 0 0 0-.991-.267l-4.651 2.381c-.006.003-.012.002-.018.006l-.312.171a.673.673 0 0 0-.332.422.672.672 0 0 0 .077.53l.185.304c.003.006.008.01.012.016l2.873 4.489a.75.75 0 0 0 .991.266l.226-.157c.344-.188.366-.673.163-1.008l-1.85-2.87c.407.063.811.138 1.207.242 3.226.845 5.856 3.027 7.387 5.986 1.448 2.797 1.72 5.99.765 8.991s-3.02 5.451-5.818 6.901a.97.97 0 1 0 .894 1.723 13.643 13.643 0 0 0 6.776-8.035 13.64 13.64 0 0 0-.893-10.473z"/>
</svg>